<?xml version="1.0" standalone="no"?>
<!DOCTYPE svg PUBLIC "-//W3C//DTD SVG 20010904//EN"
 "http://www.w3.org/TR/2001/REC-SVG-20010904/DTD/svg10.dtd">
<svg version="1.0" xmlns="http://www.w3.org/2000/svg"
 width="240.000000pt" height="240.000000pt" viewBox="0 0 240.000000 240.000000"
 preserveAspectRatio="xMidYMid meet">

<g transform="translate(0.000000,240.000000) scale(0.100000,-0.100000)"
fill="#000000" stroke="none">
<path d="M1726 1807 c-8 -12 -42 -79 -75 -149 -48 -100 -64 -126 -77 -121 -8
3 -20 17 -25 31 -9 24 -10 24 -107 17 -123 -9 -237 -30 -316 -59 -60 -21 -63
-21 -101 -5 -97 43 -439 84 -440 53 0 -6 -17 -27 -38 -46 l-37 -35 0 -402 0
-401 236 0 c203 0 238 -2 248 -16 19 -25 91 -30 123 -8 25 17 55 20 263 24
l235 5 5 235 6 235 137 284 c76 157 137 294 135 305 -4 25 -90 75 -130 76 -18
0 -33 -8 -42 -23z m87 -18 c66 -34 69 -37 51 -70 -8 -16 -17 -29 -20 -29 -2 0
-32 14 -64 30 l-60 30 15 30 c18 36 23 36 78 9z m-33 -99 c42 -21 58 -34 54
-45 -8 -21 -16 -19 -84 15 -42 21 -58 34 -54 45 8 21 16 19 84 -15z m-29 -72
c3 -5 9 -9 13 -9 24 3 36 -1 36 -14 0 -21 -13 -19 -75 10 -39 18 -53 29 -49
40 5 13 10 13 37 -2 18 -9 35 -20 38 -25z m-67 -31 c17 -12 10 -30 -95 -251
-110 -230 -114 -237 -139 -231 -14 4 -26 8 -28 9 -1 2 39 88 89 192 50 104
102 213 115 242 24 56 30 59 58 39z m94 -42 c2 -2 -193 -418 -219 -467 -8 -15
-14 -16 -32 -7 -12 7 -23 13 -25 14 -1 1 39 87 89 191 50 104 102 213 115 242
22 50 25 52 46 41 13 -6 24 -13 26 -14z m-917 -11 c42 -8 100 -22 130 -32 45
-16 55 -23 57 -46 l3 -26 -48 19 c-54 21 -200 47 -315 57 -75 5 -78 7 -78 31
l0 25 88 -7 c48 -4 121 -13 163 -21z m659 1 c0 -14 -3 -25 -7 -25 -62 0 -255
-26 -311 -41 -40 -10 -78 -16 -84 -13 -6 4 -8 2 -5 -3 4 -6 -2 -13 -13 -16
-23 -6 -26 3 -7 22 10 11 9 12 -2 6 -9 -5 -12 -3 -9 6 3 8 14 14 26 13 12 0
19 3 17 6 -12 19 220 63 353 68 39 2 42 0 42 -23z m-877 -765 c81 0 231 -19
235 -30 2 -4 11 -6 20 -4 9 2 31 0 47 -5 21 -6 -37 -10 -187 -10 l-218 -1 0
378 c0 343 2 380 18 402 16 24 17 10 20 -352 l2 -378 63 0z m924 728 c-3 -8
-6 -5 -6 6 -1 11 2 17 5 13 3 -3 4 -12 1 -19z m-756 -43 c53 -8 128 -25 165
-37 60 -20 69 -27 72 -49 l3 -26 -64 21 c-36 12 -63 23 -62 26 2 3 -11 6 -28
6 -67 3 -176 17 -173 23 2 3 -22 4 -55 3 -58 -4 -59 -3 -59 22 0 25 3 26 53
26 28 0 95 -7 148 -15z m709 -9 c0 -22 -4 -24 -92 -31 -51 -3 -128 -13 -171
-21 -43 -8 -83 -12 -89 -8 -6 4 -8 3 -5 -3 3 -5 -10 -15 -30 -21 -39 -12 -56
-3 -46 25 12 30 229 78 376 82 54 1 57 0 57 -23z m-628 -92 c46 -10 75 -21 71
-27 -3 -6 -1 -7 6 -3 6 4 27 2 46 -4 27 -9 35 -17 35 -36 0 -13 -1 -24 -2 -24
-25 2 -116 39 -111 45 5 4 3 5 -3 2 -7 -4 -56 0 -110 8 -55 8 -125 15 -156 15
-56 0 -58 1 -58 27 l0 26 103 -6 c56 -3 137 -13 179 -23z m606 1 c-9 -20 -18
-25 -49 -25 -79 0 -281 -37 -349 -64 -11 -5 -16 0 -16 15 0 27 57 53 164 73
112 22 120 23 194 25 l68 1 -12 -25z m-678 -76 c77 -10 114 -20 188 -46 34
-13 42 -20 42 -40 0 -20 -3 -24 -17 -17 -56 24 -213 56 -308 62 l-110 7 -3 28
-3 29 68 -7 c37 -3 102 -11 143 -16z m650 15 c0 -2 -5 -14 -11 -27 -10 -22
-19 -25 -87 -31 -43 -3 -115 -15 -160 -26 -46 -11 -89 -17 -94 -14 -7 4 -8 2
-4 -4 4 -7 5 -12 2 -12 -2 0 -11 -2 -19 -5 -9 -4 -13 1 -12 17 2 26 43 50 86
52 15 1 25 4 23 7 -4 8 90 26 186 37 75 9 90 10 90 6z m-604 -110 c39 -8 95
-22 125 -32 44 -15 55 -23 57 -44 l3 -25 -58 19 c-70 24 -180 44 -295 53 -85
7 -88 8 -88 32 l0 26 93 -7 c50 -4 124 -14 163 -22z m554 10 c0 -3 -4 -13 -10
-23 -7 -14 -27 -20 -73 -25 -36 -4 -97 -16 -137 -26 -41 -10 -78 -16 -83 -13
-6 3 -7 1 -4 -4 4 -6 -2 -13 -13 -16 -16 -4 -19 0 -18 19 2 25 22 39 40 27 6
-3 8 -1 5 4 -6 10 49 28 158 52 46 10 135 14 135 5z m-606 -89 c55 -8 130 -25
168 -37 62 -20 68 -24 68 -50 0 -21 -4 -26 -16 -21 -13 5 -13 8 -2 15 10 7 8
8 -5 4 -10 -3 -50 3 -90 14 -40 11 -129 26 -199 32 -123 12 -128 13 -128 35 0
21 4 23 53 23 28 0 97 -7 151 -15z m566 -3 c0 -4 -6 -14 -12 -21 -10 -11 -10
-13 0 -7 6 4 12 3 12 -2 0 -5 -27 -13 -61 -16 -34 -4 -99 -18 -146 -32 -47
-14 -88 -22 -91 -19 -3 3 1 5 9 5 12 0 12 2 0 9 -21 13 -6 28 48 46 104 34
241 55 241 37z m70 -32 c11 -11 31 -20 44 -20 38 0 41 -19 9 -51 -29 -29 -29
-29 -63 -13 -19 10 -37 18 -38 20 -8 6 10 84 19 84 5 0 18 -9 29 -20z m137
-347 c-2 -2 -98 -2 -213 -1 l-209 3 93 19 c51 10 139 21 195 25 l102 6 3 123
c2 88 6 121 14 116 6 -4 8 -3 5 4 -4 5 -4 18 0 29 5 10 9 -58 11 -151 1 -93 1
-171 -1 -173z m-773 296 c42 -6 73 -15 70 -20 -3 -5 2 -6 11 -3 8 4 47 -4 85
-16 61 -20 70 -26 70 -46 0 -28 3 -28 -51 -8 -73 26 -177 44 -286 51 -100 6
-103 7 -103 30 0 22 3 23 65 23 35 0 98 -5 139 -11z m556 -18 c0 -27 -2 -29
-59 -35 -53 -6 -167 -33 -213 -51 -15 -6 -18 -2 -16 20 2 20 7 25 20 22 10 -3
16 -1 13 4 -7 10 80 36 179 54 39 7 72 14 74 14 1 1 2 -12 2 -28z m64 -44 c18
-13 17 -15 -11 -35 l-29 -20 4 34 c5 38 9 40 36 21z m-656 -22 c77 -7 159 -25
230 -51 33 -12 42 -21 42 -40 0 -13 -1 -24 -2 -24 -19 0 -96 38 -91 45 5 4 3
5 -4 1 -6 -3 -54 0 -105 9 -51 8 -124 15 -161 15 -70 0 -87 10 -73 46 4 12 16
14 48 10 24 -3 76 -8 116 -11z m742 -16 c0 -28 -2 -30 -17 -18 -10 9 -14 9
-10 2 6 -9 -1 -12 -22 -10 l-30 2 26 28 c35 36 53 35 53 -4z m-158 -9 c-4 -26
-8 -30 -37 -30 -30 0 -188 -38 -225 -54 -11 -5 -15 0 -15 18 0 30 41 48 173
76 114 24 109 25 104 -10z m-562 -64 c58 -8 137 -25 175 -38 62 -20 70 -26 73
-50 l3 -28 -34 15 c-49 20 -218 52 -319 60 -84 7 -88 8 -88 31 0 22 4 24 43
24 23 0 89 -7 147 -14z m720 -11 c0 -18 -5 -25 -19 -25 -107 0 -348 -43 -406
-73 -17 -9 -18 -8 -7 5 10 13 10 17 0 21 -60 22 216 92 380 96 49 1 52 0 52
-24z m-432 -152 c-10 -2 -28 -2 -40 0 -13 2 -5 4 17 4 22 1 32 -1 23 -4z"/>
<path d="M1022 1466 c7 -8 15 -12 17 -11 5 6 -10 25 -20 25 -5 0 -4 -6 3 -14z"/>
<path d="M838 733 c7 -3 16 -2 19 1 4 3 -2 6 -13 5 -11 0 -14 -3 -6 -6z"/>
<path d="M1475 1360 c3 -5 8 -10 11 -10 2 0 4 5 4 10 0 6 -5 10 -11 10 -5 0
-7 -4 -4 -10z"/>
<path d="M1350 1180 c-9 -6 -10 -10 -3 -10 6 0 15 5 18 10 8 12 4 12 -15 0z"/>
<path d="M1195 1151 c-3 -5 -2 -12 3 -15 5 -3 9 1 9 9 0 17 -3 19 -12 6z"/>
<path d="M828 913 c7 -3 16 -2 19 1 4 3 -2 6 -13 5 -11 0 -14 -3 -6 -6z"/>
<path d="M1308 893 c7 -3 16 -2 19 1 4 3 -2 6 -13 5 -11 0 -14 -3 -6 -6z"/>
</g>
</svg>
